# File exported by Houdini 16.0.600 (www.sidefx.com)
# 8 points
# 24 vertices
# 6 primitives
# Bounds: [-0.00249999994, -1, -0.00249999994] to [0.00249999994, 1, 0.00249999994]
g 
v -0.00249999994 -1 -0.00249999994
v 0.00249999994 -1 -0.00249999994
v 0.00249999994 -1 0.00249999994
v -0.00249999994 -1 0.00249999994
v -0.00249999994 1 -0.00249999994
v 0.00249999994 1 -0.00249999994
v 0.00249999994 1 0.00249999994
v -0.00249999994 1 0.00249999994
vt 0.0239106622 0 0
vt 0.0264049452 0 0
vt 0.0264049452 0.997712135 0
vt 0.0239106622 0.997712135 0
vt 0.0191285312 0 0
vt 0.0216228124 0 0
vt 0.0216228124 0.997712135 0
vt 0.0191285312 0.997712135 0
vt 0.0143463993 0 0
vt 0.0168406796 0 0
vt 0.0168406796 0.997712135 0
vt 0.0143463993 0.997712135 0
vt 0.00956426561 0 0
vt 0.0120585449 0 0
vt 0.0120585449 0.997712135 0
vt 0.00956426561 0.997712135 0
vt 0.00727641303 0.00249428023 0
vt 0.00478213327 0.00249428023 0
vt 0.00478213327 0 0
vt 0.00727641303 0 0
vt 0.00249428023 0.00249428023 0
vt 0 0.00249428023 0
vt 0 0 0
vt 0.00249428023 0 0
vn -0 -0 -1
vn 0 -0 -1
vn -0 -0 -1
vn -0 0 -1
vn 1 -0 -0
vn 1 -0 -0
vn 1 0 0
vn 1 -0 -0
vn -0 -0 1
vn 0 0 1
vn -0 -0 1
vn -0 -0 1
vn -1 0 -0
vn -1 -0 -0
vn -1 -0 0
vn -1 -0 -0
vn 0 -1 -0
vn -0 -1 -0
vn -0 -1 0
vn -0 -1 -0
vn -0 1 -0
vn -0 1 -0
vn 0 1 0
vn -0 1 -0
g ThinLine
f 2/1/1 1/2/2 5/3/3 6/4/4
f 3/5/5 2/6/6 6/7/7 7/8/8
f 4/9/9 3/10/10 7/11/11 8/12/12
f 1/13/13 4/14/14 8/15/15 5/16/16
f 3/17/17 4/18/18 1/19/19 2/20/20
f 6/21/21 5/22/22 8/23/23 7/24/24
