# File exported by Houdini 16.0.600 (www.sidefx.com)
# 8 points
# 24 vertices
# 6 primitives
# Bounds: [-0.00249999994, -4, -0.00249999994] to [0.00249999994, 4, 0.00249999994]
g 
v -0.00249999994 -4 -0.00249999994
v 0.00249999994 -4 -0.00249999994
v 0.00249999994 -4 0.00249999994
v -0.00249999994 -4 0.00249999994
v -0.00249999994 4 -0.00249999994
v 0.00249999994 4 -0.00249999994
v 0.00249999994 4 0.00249999994
v -0.00249999994 4 0.00249999994
vt 0.00884492602 0 0
vt 0.00946920924 0 0
vt 0.00946920924 0.998855352 0
vt 0.00884492602 0.998855352 0
vt 0.00707594072 0 0
vt 0.00770022534 0 0
vt 0.00770022534 0.998855352 0
vt 0.00707594072 0.998855352 0
vt 0.00530695543 0 0
vt 0.00593124051 0 0
vt 0.00593124051 0.998855352 0
vt 0.00530695543 0.998855352 0
vt 0.00353797036 0 0
vt 0.00416225474 0 0
vt 0.00416225474 0.998855352 0
vt 0.00353797036 0.998855352 0
vt 0.00239326968 0.000624284556 0
vt 0.00176898518 0.000624284556 0
vt 0.00176898518 0 0
vt 0.00239326968 0 0
vt 0.000624284556 0.000624284556 0
vt 0 0.000624284556 0
vt 0 0 0
vt 0.000624284556 0 0
vn -0 -0 -1
vn 0 -0 -1
vn -0 -0 -1
vn -0 0 -1
vn 1 -0 -0
vn 1 -0 -0
vn 1 0 0
vn 1 -0 -0
vn -0 -0 1
vn 0 0 1
vn -0 -0 1
vn -0 -0 1
vn -1 0 -0
vn -1 -0 -0
vn -1 -0 0
vn -1 -0 -0
vn 0 -1 -0
vn -0 -1 -0
vn -0 -1 0
vn -0 -1 -0
vn -0 1 -0
vn -0 1 -0
vn 0 1 0
vn -0 1 -0
g ThinLine2
f 2/1/1 1/2/2 5/3/3 6/4/4
f 3/5/5 2/6/6 6/7/7 7/8/8
f 4/9/9 3/10/10 7/11/11 8/12/12
f 1/13/13 4/14/14 8/15/15 5/16/16
f 3/17/17 4/18/18 1/19/19 2/20/20
f 6/21/21 5/22/22 8/23/23 7/24/24
